<svg width="4255" height="949" viewBox="0 0 4255 949" fill="none" xmlns="http://www.w3.org/2000/svg">
<path d="M3846 235C3762.5 342 3740 464 3748 512L3772.5 532.5C3780.33 529.167 3799.5 520.2 3813.5 511C3833.5 506 3887.5 461 3909.5 441.5C3927.1 425.9 4013.83 316 4055 263C4064 252 4081.16 230.412 4075.5 233.5C4070 236.5 4049.5 239.5 4040.5 240C3988.5 239.667 3881.5 237.5 3868 233.5C3851.32 228.559 3847 232 3846 235Z" fill="#4A99A0"/>
<path d="M3636.5 901C3619.5 898 3546 849 3523 833C3504.79 820.331 3452.67 775.667 3430 753C3468.4 756.2 3477.5 766 3492 766C3519.5 766 3558.1 768.9 3562.5 756.5" stroke="#70F3FF" stroke-width="6"/>
<path d="M3430.05 752.927C3438.3 768.048 3508.09 821.949 3530.57 838.604C3548.36 851.791 3607.26 886.856 3635.95 901.073C3620.72 865.779 3608.53 860.294 3603.93 846.583C3595.19 820.577 3580.18 784.999 3590.54 776.889" stroke="#70F3FF" stroke-width="6"/>
<line x1="3561.6" y1="758.202" x2="3746.6" y2="511.202" stroke="#70F3FF" stroke-width="6"/>
<line x1="3588.6" y1="779.202" x2="3773.6" y2="532.202" stroke="#70F3FF" stroke-width="6"/>
<path d="M3746.5 514C3746.5 482 3752.3 406.1 3775.5 358.5C3804.5 299 3845 228.5 3875 185C3899 150.2 3971.67 49.5 4005 3.5" stroke="#70F3FF"/>
<path d="M3746.5 514C3746.5 482 3752.3 406.1 3775.5 358.5C3804.5 299 3845 228.5 3875 185C3899 150.2 3971.67 49.5 4005 3.5" stroke="#70F3FF" stroke-width="6"/>
<path d="M3770.31 533.777C3799.85 521.484 3866.34 485.733 3902.73 447.266C3946.5 401 3998.39 339.345 4030 297C4056.5 261.5 4130.83 163.947 4160.5 115.5" stroke="#70F3FF" stroke-width="6"/>
<line x1="3746.92" y1="511.816" x2="3773.92" y2="532.816" stroke="#70F3FF" stroke-width="3"/>
<path d="M4002 3C4015.38 5.77429 4066.1 32.8583 4162 119" stroke="#70F3FF" stroke-width="5"/>
<path d="M3846 233.346C3847.19 231.576 3853.46 229.097 3869 233.346C3888.42 238.657 4035.62 241.553 4053 239.139C4070.38 236.725 4066.29 236.243 4076 233.346" stroke="#70F3FF"/>
<circle cx="3857.5" cy="279.5" r="8.5" fill="#70F3FF"/>
<circle cx="3795" cy="434" r="22" fill="#70F3FF"/>
<circle cx="3846" cy="382" r="15" fill="#70F3FF"/>
<circle cx="3996.5" cy="267.5" r="8.5" fill="#70F3FF"/>
<circle cx="3912.5" cy="358.5" r="8.5" fill="#70F3FF"/>
<path d="M174.375 735C146.375 735 121.208 729.833 98.875 719.5C76.5417 709.167 58.7083 694 45.375 674C32.375 653.667 25.875 629.167 25.875 600.5C25.875 580.5 29.375 558.833 36.375 535.5C51.7083 485.5 74.875 449.5 105.875 427.5C136.875 405.167 170.042 394 205.375 394C224.375 394 241.208 396.833 255.875 402.5C270.542 408.167 284.042 416.333 296.375 427L309.875 416.5C318.875 409.5 326.375 404.667 332.375 402C338.708 399.333 345.708 398 353.375 398C361.708 398 368.375 399.833 373.375 403.5C378.375 407.167 380.875 412.5 380.875 419.5C380.875 423.167 380.208 426.833 378.875 430.5L350.875 508.5C347.875 517.5 344.208 523.833 339.875 527.5C335.875 531.167 329.708 533 321.375 533C312.708 533 305.542 530 299.875 524C294.542 517.667 288.375 507 281.375 492C273.375 476.333 266.875 466 261.875 461C256.875 456 249.542 453.5 239.875 453.5C226.208 453.5 213.042 462 200.375 479C187.708 495.667 176.208 520.833 165.875 554.5C157.208 582.833 152.875 606.5 152.875 625.5C152.875 642.167 156.042 654.667 162.375 663C168.708 671 177.208 675 187.875 675C203.542 675 216.375 671.5 226.375 664.5C236.708 657.5 247.208 648 257.875 636C264.542 628.667 269.875 623.333 273.875 620C278.208 616.333 282.708 614.5 287.375 614.5C293.375 614.5 299.708 617.5 306.375 623.5C313.042 629.5 316.208 635.5 315.875 641.5C316.208 648.833 310.208 660.167 297.875 675.5C285.875 690.833 269.042 704.667 247.375 717C226.042 729 201.708 735 174.375 735ZM560.066 467.5C605.4 467.5 638.733 476.667 660.066 495C681.733 513.333 692.566 537.333 692.566 567C692.566 577 691.233 588.167 688.566 600.5C682.233 627.833 670.4 651.833 653.066 672.5C635.733 692.833 614.4 708.667 589.066 720C564.066 731 536.9 736.5 507.566 736.5C461.233 736.5 426.9 727.333 404.566 709C382.566 690.333 371.566 665.667 371.566 635C371.566 624.667 372.9 613.167 375.566 600.5C381.9 574.5 393.9 551.5 411.566 531.5C429.566 511.167 451.4 495.5 477.066 484.5C503.066 473.167 530.733 467.5 560.066 467.5ZM558.566 512C551.566 512 544.066 518.333 536.066 531C528.4 543.333 519.233 566.833 508.566 601.5C497.9 636.167 492.566 660.5 492.566 674.5C492.566 681.833 493.733 686.833 496.066 689.5C498.4 691.833 501.566 693 505.566 693C512.566 693.667 519.733 687.667 527.066 675C534.733 662.333 544.233 637.667 555.566 601C565.9 568.667 571.066 545.167 571.066 530.5C571.066 523.5 569.9 518.667 567.566 516C565.566 513.333 562.566 512 558.566 512ZM994.191 660C993.525 662.667 993.191 664.5 993.191 665.5C993.191 667.833 993.858 669.667 995.191 671C996.525 672.333 998.191 673 1000.19 673C1004.19 673 1007.52 671.333 1010.19 668C1013.19 664.333 1015.19 662.5 1016.19 662.5C1017.86 662.5 1019.19 663.667 1020.19 666C1021.19 668.333 1021.69 671 1021.69 674C1022.02 683 1018.52 692.167 1011.19 701.5C1004.19 710.833 994.691 718.5 982.691 724.5C970.691 730.5 957.691 733.5 943.691 733.5C927.025 733.5 912.525 730.333 900.191 724C887.858 717.667 879.358 709.333 874.691 699C865.691 710.667 855.358 719.333 843.691 725C832.025 730.667 819.691 733.5 806.691 733.5C791.358 733.5 777.025 729.667 763.691 722C750.691 714.333 740.191 703.5 732.191 689.5C724.525 675.167 720.691 659 720.691 641C720.691 610.667 726.358 582.167 737.691 555.5C749.358 528.5 765.525 506.833 786.191 490.5C806.858 473.833 830.358 465.5 856.691 465.5C871.025 465.5 883.191 467.167 893.191 470.5C903.525 473.833 912.858 478.833 921.191 485.5L938.191 429.5C939.191 426.5 939.691 424 939.691 422C939.691 418.333 938.691 415.333 936.691 413C935.025 410.667 932.691 408.333 929.691 406C926.358 403.333 923.858 401 922.191 399C920.858 397 920.691 394.333 921.691 391C923.691 383.333 934.191 376.667 953.191 371C972.191 365.333 992.025 362.5 1012.69 362.5C1032.02 362.5 1046.19 366.167 1055.19 373.5C1064.52 380.833 1069.19 390.833 1069.19 403.5C1069.19 410.833 1068.02 418 1065.69 425L994.191 660ZM910.691 519.5C905.358 514.833 899.525 512.5 893.191 512.5C883.525 512.5 874.025 519.667 864.691 534C855.358 548.333 847.858 565.667 842.191 586C836.525 606.333 833.858 624.667 834.191 641C834.191 659.333 840.191 668.5 852.191 668.5C856.525 668.5 860.191 666.833 863.191 663.5C866.191 659.833 869.025 654 871.691 646L910.691 519.5ZM1193.83 467.5C1213.16 467.5 1227.33 471.167 1236.33 478.5C1245.33 485.833 1249.83 495.833 1249.83 508.5C1249.83 516.167 1248.66 523.5 1246.33 530.5L1200.33 680C1199.33 684 1198.83 687.5 1198.83 690.5C1198.83 694.833 1199.66 698.333 1201.33 701C1202.99 703.333 1205.33 705.667 1208.33 708C1210.66 710.333 1212.33 712.333 1213.33 714C1214.33 715.333 1214.49 717.167 1213.83 719.5C1212.16 723.833 1208.83 727 1203.83 729C1198.83 731 1191.16 732 1180.83 732H1066.83C1058.16 732 1051.83 730.667 1047.83 728C1043.83 725 1042.49 721.167 1043.83 716.5C1045.16 712.5 1048.66 709 1054.33 706C1059.33 703.333 1063.49 700.167 1066.83 696.5C1070.16 692.833 1072.99 687 1075.33 679L1118.83 534.5C1119.83 531.5 1120.33 529 1120.33 527C1120.33 523.333 1119.49 520.5 1117.83 518.5C1116.16 516.167 1113.66 513.833 1110.33 511.5C1106.99 508.833 1104.66 506.5 1103.33 504.5C1101.99 502.5 1101.83 499.833 1102.83 496.5C1104.83 488.833 1115.33 482.167 1134.33 476.5C1153.33 470.5 1173.16 467.5 1193.83 467.5ZM1227.33 357C1240.33 357 1251.16 361.333 1259.83 370C1268.49 378.333 1272.83 388.667 1272.83 401C1272.83 409.667 1270.49 418.167 1265.83 426.5C1261.49 434.833 1255.16 441.667 1246.83 447C1238.83 452 1229.83 454.5 1219.83 454.5C1207.16 454.5 1196.49 450.333 1187.83 442C1179.49 433.333 1175.16 422.667 1174.83 410C1174.83 401.667 1176.99 393.5 1181.33 385.5C1185.66 377.167 1191.83 370.333 1199.83 365C1207.83 359.667 1216.99 357 1227.33 357ZM1574.93 663C1574.27 664.333 1573.93 666.333 1573.93 669C1573.93 671.333 1574.43 673.167 1575.43 674.5C1576.77 675.833 1578.43 676.5 1580.43 676.5C1584.43 676.5 1587.77 674.833 1590.43 671.5C1593.43 667.833 1595.43 666 1596.43 666C1598.1 666 1599.43 667.167 1600.43 669.5C1601.43 671.5 1601.93 674 1601.93 677C1602.27 686.667 1599.1 696.167 1592.43 705.5C1585.77 714.5 1575.93 722 1562.93 728C1550.27 733.667 1534.93 736.5 1516.93 736.5C1494.93 736.5 1477.43 731.5 1464.43 721.5C1451.43 711.167 1444.77 697.5 1444.43 680.5C1444.43 668.167 1447.43 654.333 1453.43 639L1480.93 567C1482.6 562.667 1483.43 559.167 1483.43 556.5C1483.43 552.167 1481.93 548.833 1478.93 546.5C1476.27 543.833 1472.93 542.5 1468.93 542.5C1461.6 542.5 1454.6 546 1447.93 553C1441.27 559.667 1436.43 568 1433.43 578L1402.43 680C1401.1 683.667 1400.43 687.167 1400.43 690.5C1400.43 694.5 1401.27 697.833 1402.93 700.5C1404.6 702.833 1406.93 705.333 1409.93 708C1412.27 710 1413.93 711.833 1414.93 713.5C1415.93 715.167 1416.1 717.167 1415.43 719.5C1414.1 723.833 1410.93 727 1405.93 729C1400.93 731 1393.1 732 1382.43 732H1268.43C1259.77 732 1253.6 730.667 1249.93 728C1245.93 725 1244.43 721.167 1245.43 716.5C1246.77 712.5 1250.27 709 1255.93 706C1260.93 703.333 1265.1 700.167 1268.43 696.5C1271.77 692.833 1274.6 687 1276.93 679L1321.43 534.5C1322.1 532.833 1322.43 530.5 1322.43 527.5C1322.43 523.833 1321.6 521 1319.93 519C1318.6 517 1316.27 514.5 1312.93 511.5C1309.6 508.833 1307.27 506.5 1305.93 504.5C1304.6 502.5 1304.43 499.833 1305.43 496.5C1307.43 488.833 1317.93 482.167 1336.93 476.5C1355.93 470.5 1375.77 467.5 1396.43 467.5C1413.1 467.5 1426.27 472.167 1435.93 481.5C1445.6 490.5 1449.93 503.167 1448.93 519.5C1462.6 499.833 1477.1 486.333 1492.43 479C1507.77 471.333 1524.43 467.5 1542.43 467.5C1562.77 467.5 1579.1 473.667 1591.43 486C1604.1 498.333 1610.43 514.333 1610.43 534C1610.43 544.333 1608.77 554.5 1605.43 564.5L1574.93 663ZM1946.34 386C1957.01 386 1967.34 388.333 1977.34 393C1987.68 397.333 1996.01 403.5 2002.34 411.5C2009.01 419.167 2012.34 427.5 2012.34 436.5C2012.34 456.167 1999.01 466 1972.34 466C1964.68 466 1958.68 465.5 1954.34 464.5C1950.34 463.167 1945.51 461.167 1939.84 458.5C1938.84 460.833 1938.34 464.167 1938.34 468.5C1938.34 473.833 1939.18 480.167 1940.84 487.5C1942.84 494.833 1945.18 501.667 1947.84 508C1954.84 518.333 1958.34 530.667 1958.34 545C1958.34 551.333 1957.51 559 1955.84 568C1951.84 585.333 1943.01 601.167 1929.34 615.5C1916.01 629.833 1898.68 641.167 1877.34 649.5C1856.34 657.5 1833.18 661.5 1807.84 661.5C1788.51 661.5 1770.34 660.167 1753.34 657.5C1748.34 661.833 1745.84 667.167 1745.84 673.5C1745.84 677.833 1747.84 681.5 1751.84 684.5C1755.84 687.167 1762.51 688.5 1771.84 688.5H1846.84C1872.51 688.5 1892.51 693 1906.84 702C1921.18 710.667 1928.34 723.167 1928.34 739.5C1928.34 745.5 1927.34 751.667 1925.34 758C1921.34 771 1912.18 783 1897.84 794C1883.84 805.333 1864.01 814.5 1838.34 821.5C1812.68 828.5 1781.51 832 1744.84 832C1712.18 832 1684.51 829.167 1661.84 823.5C1639.18 817.833 1622.34 810 1611.34 800C1600.01 790.333 1594.34 779.5 1594.34 767.5C1594.34 764.833 1595.01 760.833 1596.34 755.5C1599.34 745.833 1606.18 738 1616.84 732C1627.18 725.667 1644.34 721.5 1668.34 719.5C1660.34 711.833 1656.34 702.667 1656.34 692C1656.34 688.333 1656.84 684.5 1657.84 680.5C1663.18 663.167 1678.84 650.333 1704.84 642C1679.84 628.333 1667.34 608.333 1667.34 582C1667.34 574.667 1668.34 567 1670.34 559C1674.34 541.667 1683.18 526 1696.84 512C1710.51 497.667 1728.01 486.333 1749.34 478C1770.68 469.667 1794.01 465.5 1819.34 465.5C1859.01 465.5 1890.18 470.667 1912.84 481C1907.84 473.333 1903.84 465.167 1900.84 456.5C1898.18 447.5 1896.84 439.333 1896.84 432C1896.84 419.333 1900.84 408.5 1908.84 399.5C1917.18 390.5 1929.68 386 1946.34 386ZM1837.84 563.5C1843.18 546.5 1845.84 533.5 1845.84 524.5C1845.84 513.167 1841.01 507.5 1831.34 507.5C1823.01 507.5 1815.68 511.667 1809.34 520C1803.34 528 1797.18 542.5 1790.84 563.5C1785.51 580.833 1782.84 594 1782.84 603C1782.84 614 1787.51 619.5 1796.84 619.5C1805.18 619.5 1812.51 615.333 1818.84 607C1825.18 598.667 1831.51 584.167 1837.84 563.5ZM1738.34 739C1729.01 739 1720.51 738.5 1712.84 737.5C1708.84 742.5 1706.84 749.167 1706.84 757.5C1707.18 765.833 1710.51 771.833 1716.84 775.5C1723.51 779.167 1733.68 781 1747.34 781C1764.01 781 1777.51 778.5 1787.84 773.5C1798.51 768.5 1803.84 761.333 1803.84 752C1803.84 748 1802.34 744.833 1799.34 742.5C1796.34 740.167 1792.01 739 1786.34 739H1738.34ZM2381.23 399C2399.56 399 2408.73 406.5 2408.73 421.5C2408.73 426.167 2407.73 432 2405.73 439L2393.73 479.5C2390.06 491.833 2385.56 500.5 2380.23 505.5C2374.89 510.5 2367.23 513 2357.23 513C2348.89 513 2342.39 510.833 2337.73 506.5C2333.39 502.167 2329.23 495.333 2325.23 486L2316.73 465.5C2314.06 459.167 2311.23 454.833 2308.23 452.5C2305.23 450.167 2300.56 449 2294.23 449H2282.73L2219.23 672.5C2218.23 676.833 2217.73 680.667 2217.73 684C2217.73 688 2218.23 691.333 2219.23 694C2220.56 696.667 2222.39 699.5 2224.73 702.5C2227.73 707.167 2229.23 711 2229.23 714C2229.23 714.667 2228.89 716.333 2228.23 719C2226.56 723.333 2223.23 726.5 2218.23 728.5C2213.56 730.5 2206.73 731.5 2197.73 731.5H2080.23C2073.23 731.5 2067.73 730.333 2063.73 728C2060.06 725.667 2058.23 722.333 2058.23 718C2058.23 716 2058.73 714 2059.73 712C2061.06 709 2062.56 706.833 2064.23 705.5C2066.23 703.833 2069.06 701.833 2072.73 699.5C2077.73 696.5 2081.89 693.167 2085.23 689.5C2088.56 685.833 2091.39 680.167 2093.73 672.5L2156.73 449H2145.23C2137.89 449 2131.89 450.167 2127.23 452.5C2122.56 454.833 2117.56 459.167 2112.23 465.5L2095.73 486C2088.06 495 2080.56 501.833 2073.23 506.5C2066.23 510.833 2058.56 513 2050.23 513C2042.56 513 2036.56 511 2032.23 507C2027.89 503 2025.73 497.5 2025.73 490.5C2025.73 487.167 2026.23 483.5 2027.23 479.5L2040.23 434C2042.89 424.667 2045.89 417.667 2049.23 413C2052.56 408 2057.23 404.5 2063.23 402.5C2069.56 400.167 2078.39 399 2089.73 399H2381.23ZM2573.62 467.5C2618.95 467.5 2652.29 476.667 2673.62 495C2695.29 513.333 2706.12 537.333 2706.12 567C2706.12 577 2704.79 588.167 2702.12 600.5C2695.79 627.833 2683.95 651.833 2666.62 672.5C2649.29 692.833 2627.95 708.667 2602.62 720C2577.62 731 2550.45 736.5 2521.12 736.5C2474.79 736.5 2440.45 727.333 2418.12 709C2396.12 690.333 2385.12 665.667 2385.12 635C2385.12 624.667 2386.45 613.167 2389.12 600.5C2395.45 574.5 2407.45 551.5 2425.12 531.5C2443.12 511.167 2464.95 495.5 2490.62 484.5C2516.62 473.167 2544.29 467.5 2573.62 467.5ZM2572.12 512C2565.12 512 2557.62 518.333 2549.62 531C2541.95 543.333 2532.79 566.833 2522.12 601.5C2511.45 636.167 2506.12 660.5 2506.12 674.5C2506.12 681.833 2507.29 686.833 2509.62 689.5C2511.95 691.833 2515.12 693 2519.12 693C2526.12 693.667 2533.29 687.667 2540.62 675C2548.29 662.333 2557.79 637.667 2569.12 601C2579.45 568.667 2584.62 545.167 2584.62 530.5C2584.62 523.5 2583.45 518.667 2581.12 516C2579.12 513.333 2576.12 512 2572.12 512ZM2906.75 467.5C2945.08 467.5 2975.75 474.667 2998.75 489C3021.75 503 3033.25 524.5 3033.25 553.5C3033.25 564.5 3031.25 577 3027.25 591L3006.75 660C3006.41 661.333 3006.25 663 3006.25 665C3006.25 670.333 3008.41 673 3012.75 673C3016.75 673 3020.08 671.333 3022.75 668C3025.75 664.333 3027.75 662.5 3028.75 662.5C3030.41 662.5 3031.75 663.667 3032.75 666C3034.08 668.333 3034.75 671 3034.75 674C3035.08 683 3031.58 692.167 3024.25 701.5C3017.25 710.833 3007.75 718.5 2995.75 724.5C2983.75 730.5 2970.58 733.5 2956.25 733.5C2938.91 733.5 2924.08 730.333 2911.75 724C2899.41 717.667 2890.91 708.333 2886.25 696C2876.25 708 2864.41 717.333 2850.75 724C2837.08 730.333 2822.41 733.5 2806.75 733.5C2789.08 733.5 2774.25 730.167 2762.25 723.5C2750.25 716.5 2741.25 707.667 2735.25 697C2729.58 686 2726.75 674.5 2726.75 662.5C2726.75 657.167 2727.25 652 2728.25 647C2733.58 624 2745.08 606.667 2762.75 595C2780.75 583.333 2802.08 577.5 2826.75 577.5C2854.41 577.5 2881.58 581.833 2908.25 590.5L2920.75 557.5C2925.08 543.5 2927.25 532.667 2927.25 525C2926.91 517 2924.25 511 2919.25 507C2914.25 503 2906.58 501 2896.25 501C2898.25 506.333 2899.25 511.833 2899.25 517.5C2899.25 529.833 2894.58 540.5 2885.25 549.5C2875.91 558.5 2862.58 563 2845.25 563C2828.91 563 2816.08 559.5 2806.75 552.5C2797.75 545.167 2793.25 536.167 2793.25 525.5C2793.25 508.833 2802.58 495 2821.25 484C2839.91 473 2868.41 467.5 2906.75 467.5ZM2878.75 619C2869.41 619 2861.75 622.667 2855.75 630C2850.08 637 2847.25 644.667 2847.25 653C2847.25 658.333 2848.41 662.667 2850.75 666C2853.41 669.333 2857.08 671 2861.75 671C2866.08 671 2870.75 669.333 2875.75 666C2881.08 662.333 2884.91 657 2887.25 650L2897.75 620.5C2892.08 619.5 2885.75 619 2878.75 619ZM3239.89 463C3267.56 463 3291.39 465.5 3311.39 470.5C3331.73 475.5 3347.23 482.5 3357.89 491.5C3368.89 500.5 3374.39 510.667 3374.39 522C3374.39 533.667 3369.73 543.167 3360.39 550.5C3351.39 557.833 3338.73 561.5 3322.39 561.5C3305.73 561.5 3291.56 557.333 3279.89 549C3268.56 540.667 3262.89 530.167 3262.89 517.5C3262.89 513.167 3263.56 509 3264.89 505C3258.89 503.333 3253.56 502.5 3248.89 502.5C3240.56 502.5 3233.56 504.5 3227.89 508.5C3222.56 512.5 3220.06 518.167 3220.39 525.5C3220.39 534.167 3224.73 541.5 3233.39 547.5C3242.06 553.5 3256.06 561 3275.39 570C3292.06 577.333 3305.73 584.167 3316.39 590.5C3327.39 596.5 3336.56 604.167 3343.89 613.5C3351.56 622.833 3355.39 633.833 3355.39 646.5C3355.39 649.167 3354.73 654.167 3353.39 661.5C3348.06 683.833 3333.23 701.5 3308.89 714.5C3284.56 727.5 3252.56 734 3212.89 734C3168.23 734 3132.73 728 3106.39 716C3080.39 704 3067.39 687.5 3067.39 666.5C3067.39 652.167 3071.73 641.333 3080.39 634C3089.06 626.667 3100.56 623 3114.89 623C3131.56 623 3145.73 628.167 3157.39 638.5C3169.39 648.833 3175.39 662 3175.39 678C3175.39 682.333 3174.89 686.833 3173.89 691.5C3181.89 693.5 3189.56 694.5 3196.89 694.5C3205.56 694.5 3212.73 692.167 3218.39 687.5C3224.06 682.833 3226.89 676.333 3226.89 668C3226.56 660.333 3222.73 653.833 3215.39 648.5C3208.06 642.833 3196.39 636.167 3180.39 628.5C3165.39 621.5 3153.06 615 3143.39 609C3133.73 602.667 3125.39 594.833 3118.39 585.5C3111.73 576.167 3108.39 565.167 3108.39 552.5C3108.39 525.167 3119.73 503.5 3142.39 487.5C3165.39 471.167 3197.89 463 3239.89 463ZM3615.28 474C3621.61 474 3626.45 475.333 3629.78 478C3633.45 480.667 3635.28 484.333 3635.28 489C3635.28 490.333 3634.95 492.667 3634.28 496C3629.95 510.667 3619.95 518 3604.28 518H3575.28L3537.78 641.5C3536.11 646.5 3535.28 651.667 3535.28 657C3535.28 663 3536.95 667.167 3540.28 669.5C3543.61 671.833 3548.28 673 3554.28 673C3559.61 673 3566.28 672.333 3574.28 671C3578.28 670 3581.78 669.5 3584.78 669.5C3587.11 669.5 3588.78 670.333 3589.78 672C3591.11 673.333 3591.78 675.167 3591.78 677.5C3592.11 684.167 3587.11 692.333 3576.78 702C3566.78 711.333 3553.11 719.5 3535.78 726.5C3518.45 733.167 3499.28 736.5 3478.28 736.5C3455.61 736.5 3437.45 731.333 3423.78 721C3410.11 710.667 3403.28 696.5 3403.28 678.5C3403.28 670.167 3404.61 662.167 3407.28 654.5L3439.28 555.5C3440.95 549.833 3441.78 545.333 3441.78 542C3441.78 535.333 3440.11 529.667 3436.78 525C3433.78 520.333 3429.45 515.5 3423.78 510.5C3418.78 505.833 3415.28 502 3413.28 499C3411.28 495.667 3410.78 491.833 3411.78 487.5C3413.11 483.167 3415.95 479.833 3420.28 477.5C3424.61 475.167 3431.45 474 3440.78 474H3468.78L3500.28 442.5C3511.28 431.5 3521.28 423.833 3530.28 419.5C3539.61 415.167 3551.61 413 3566.28 413C3587.28 413 3597.78 421 3597.78 437C3597.78 442 3597.11 446.667 3595.78 451L3588.78 474H3615.28Z" fill="white"/>
</svg>
