<svg width="56" height="64" viewBox="0 0 56 64" fill="none" xmlns="http://www.w3.org/2000/svg">
<rect x="6" y="4" width="44" height="56" fill="white"/>
<path d="M35.4 43.1875C35.7375 43.525 35.7375 44.0375 35.4 44.3375C32.3375 47.4 23.675 47.4125 20.6 44.3375C20.2625 44.0375 20.2625 43.525 20.6 43.1875C20.9 42.8875 21.4125 42.8875 21.7125 43.1875C24.05 45.5875 31.8375 45.6375 34.275 43.1875C34.575 42.9 35.1 42.9 35.4 43.1875ZM23.9875 36.4625C23.9875 34.6 22.5 33.1125 20.675 33.1125C18.8125 33.1125 17.325 34.6 17.325 36.4625C17.325 38.2875 18.8125 39.775 20.675 39.775C22.5 39.775 23.9875 38.2875 23.9875 36.4625ZM35.325 33.1125C33.5 33.1125 32.0125 34.6 32.0125 36.4625C32.0125 38.2875 33.5 39.775 35.325 39.775C37.1875 39.775 38.675 38.2875 38.675 36.4625C38.675 34.6 37.1875 33.1125 35.325 33.1125ZM56 10V54C56 57.3125 53.3125 60 50 60H6C2.6875 60 0 57.3125 0 54V10C0 6.6875 2.6875 4 6 4H50C53.3125 4 56 6.6875 56 10ZM43.5375 27.575C42.275 27.575 41.1625 28.1 40.3375 28.9125C37.325 26.825 33.275 25.4875 28.775 25.3375L31.1125 14.8125L38.55 16.4875C38.55 18.3125 40.0375 19.8 41.8625 19.8C43.725 19.8 45.2125 18.275 45.2125 16.45C45.2125 14.625 43.725 13.1 41.8625 13.1C40.5625 13.1 39.45 13.875 38.8875 14.9625L30.675 13.1375C30.2625 13.025 29.8625 13.325 29.75 13.7375L27.1875 25.3375C22.725 25.525 18.7125 26.8625 15.7 28.95C14.8875 28.1 13.725 27.575 12.4625 27.575C7.775 27.575 6.2375 33.875 10.525 36.0125C10.375 36.6875 10.3 37.3875 10.3 38.1C10.3 45.1625 18.2625 50.8875 28.0375 50.8875C37.85 50.8875 45.8125 45.1625 45.8125 38.1C45.8125 37.3875 45.7375 36.65 45.55 35.975C49.75 33.825 48.2 27.575 43.5375 27.575Z" fill="#FF4301"/>
</svg>
