<svg width="56" height="64" viewBox="0 0 56 64" fill="none" xmlns="http://www.w3.org/2000/svg">
<rect x="7" y="4" width="42" height="56" fill="white"/>
<path d="M50 4H6C2.68625 4 0 6.68625 0 10V54C0 57.3138 2.68625 60 6 60H50C53.3138 60 56 57.3138 56 54V10C56 6.68625 53.3138 4 50 4ZM14 52C10.6862 52 8 49.3138 8 46C8 42.6862 10.6862 40 14 40C17.3137 40 20 42.6862 20 46C20 49.3138 17.3137 52 14 52ZM33.6916 52H29.3997C28.6484 52 28.0184 51.4205 27.9695 50.6707C27.3177 40.6645 19.3141 32.6808 9.32913 32.0304C8.5795 31.9816 8 31.3515 8 30.6003V26.3084C8 25.4915 8.6835 24.8363 9.49925 24.8803C23.3175 25.627 34.3739 36.6973 35.1198 50.5008C35.1637 51.3165 34.5085 52 33.6916 52ZM46.57 52H42.2783C41.5081 52 40.8814 51.3898 40.8499 50.6203C40.1501 33.5534 26.4494 19.8501 9.37988 19.1502C8.61025 19.1186 8 18.4919 8 17.7218V13.43C8 12.6233 8.66725 11.972 9.47338 12.001C30.4521 12.7541 47.2496 29.6499 47.999 50.5266C48.028 51.3328 47.3768 52 46.57 52Z" fill="#EE802F"/>
</svg>
