<svg width="56" height="64" viewBox="0 0 56 64" fill="none" xmlns="http://www.w3.org/2000/svg">
<rect x="6" y="4" width="45" height="56" fill="#F5F8FA"/>
<path d="M50 4H6C2.6875 4 0 6.6875 0 10V54C0 57.3125 2.6875 60 6 60H50C53.3125 60 56 57.3125 56 54V10C56 6.6875 53.3125 4 50 4ZM43.8875 23.85C43.9125 24.2 43.9125 24.5625 43.9125 24.9125C43.9125 35.75 35.6625 48.2375 20.5875 48.2375C15.9375 48.2375 11.625 46.8875 8 44.5625C8.6625 44.6375 9.3 44.6625 9.975 44.6625C13.8125 44.6625 17.3375 43.3625 20.15 41.1625C16.55 41.0875 13.525 38.725 12.4875 35.475C13.75 35.6625 14.8875 35.6625 16.1875 35.325C12.4375 34.5625 9.625 31.2625 9.625 27.275V27.175C10.7125 27.7875 11.9875 28.1625 13.325 28.2125C12.2005 27.4645 11.2787 26.4498 10.6418 25.2589C10.0049 24.068 9.67279 22.738 9.675 21.3875C9.675 19.8625 10.075 18.4625 10.7875 17.25C14.825 22.225 20.8875 25.475 27.6875 25.825C26.525 20.2625 30.6875 15.75 35.6875 15.75C38.05 15.75 40.175 16.7375 41.675 18.3375C43.525 17.9875 45.3 17.3 46.875 16.3625C46.2625 18.2625 44.975 19.8625 43.275 20.875C44.925 20.7 46.525 20.2375 48 19.6C46.8875 21.2375 45.4875 22.6875 43.8875 23.85Z" fill="#1DA1F2"/>
</svg>
