<svg width="64" height="64" viewBox="0 0 64 64" fill="none" xmlns="http://www.w3.org/2000/svg">
<path d="M62.7875 23.85C63.275 23.4625 64 23.825 64 24.4375V50C64 53.3125 61.3125 56 58 56H6C2.6875 56 0 53.3125 0 50V24.45C0 23.825 0.7125 23.475 1.2125 23.8625C4.0125 26.0375 7.725 28.8 20.475 38.0625C23.1125 39.9875 27.5625 44.0375 32 44.0125C36.4625 44.05 41 39.9125 43.5375 38.0625C56.2875 28.8 59.9875 26.025 62.7875 23.85ZM32 40C34.9 40.05 39.075 36.35 41.175 34.825C57.7625 22.7875 59.025 21.7375 62.85 18.7375C63.575 18.175 64 17.3 64 16.375V14C64 10.6875 61.3125 8 58 8H6C2.6875 8 0 10.6875 0 14V16.375C0 17.3 0.425 18.1625 1.15 18.7375C4.975 21.725 6.2375 22.7875 22.825 34.825C24.925 36.35 29.1 40.05 32 40Z" fill="black"/>
</svg>
