<svg width="64" height="64" viewBox="0 0 64 64" fill="none" xmlns="http://www.w3.org/2000/svg">
<path d="M54 40H50C49.4696 40 48.9609 40.2107 48.5858 40.5858C48.2107 40.9609 48 41.4696 48 42V56H8V16H26C26.5304 16 27.0391 15.7893 27.4142 15.4142C27.7893 15.0391 28 14.5304 28 14V10C28 9.46957 27.7893 8.96086 27.4142 8.58579C27.0391 8.21071 26.5304 8 26 8H6C4.4087 8 2.88258 8.63214 1.75736 9.75736C0.632141 10.8826 0 12.4087 0 14L0 58C0 59.5913 0.632141 61.1174 1.75736 62.2426C2.88258 63.3679 4.4087 64 6 64H50C51.5913 64 53.1174 63.3679 54.2426 62.2426C55.3679 61.1174 56 59.5913 56 58V42C56 41.4696 55.7893 40.9609 55.4142 40.5858C55.0391 40.2107 54.5304 40 54 40ZM61 0H45C42.3288 0 40.9938 3.23875 42.875 5.125L47.3413 9.59125L16.875 40.0462C16.5953 40.325 16.3734 40.6561 16.222 41.0208C16.0706 41.3854 15.9926 41.7764 15.9926 42.1712C15.9926 42.5661 16.0706 42.9571 16.222 43.3217C16.3734 43.6864 16.5953 44.0175 16.875 44.2962L19.7087 47.125C19.9875 47.4047 20.3186 47.6266 20.6833 47.778C21.0479 47.9294 21.4389 48.0074 21.8337 48.0074C22.2286 48.0074 22.6196 47.9294 22.9842 47.778C23.3489 47.6266 23.68 47.4047 23.9587 47.125L54.41 16.665L58.875 21.125C60.75 23 64 21.6875 64 19V3C64 2.20435 63.6839 1.44129 63.1213 0.87868C62.5587 0.31607 61.7957 0 61 0V0Z" fill="#f0f0f0"/>
</svg>
